<?xml version="1.0" encoding="UTF-8"?>
<svg viewBox="0 0 800 600" xmlns="http://www.w3.org/2000/svg" preserveAspectRatio="xMidYMid meet">
  <!-- Background -->
  <rect width="800" height="600" fill="#f8f9fa" rx="10" ry="10"/>
  
  <!-- Title -->
  <text x="400" y="50" font-family="Arial, sans-serif" font-size="24" text-anchor="middle" font-weight="bold" fill="#333">Business Impact of AI Limitations</text>
  
  <!-- Main graphic - Balance scale with AI and Business -->
  <g transform="translate(400, 300)">
    <!-- Scale arms - changed from thick black to thinner gray -->
    <line x1="-200" y1="0" x2="200" y2="0" stroke="#6c757d" stroke-width="4"/>
    
    <!-- Left side - Risks -->
    <g transform="translate(-200, 0)">
      <circle cx="0" cy="0" r="10" fill="#6c757d"/>
      <!-- Scale platform -->
      <rect x="-75" y="20" width="150" height="10" rx="3" ry="3" fill="#9aa5b1"/>
      <!-- Scale strings -->
      <line x1="-60" y1="0" x2="-60" y2="20" stroke="#9aa5b1" stroke-width="2"/>
      <line x1="60" y1="0" x2="60" y2="20" stroke="#9aa5b1" stroke-width="2"/>
      <line x1="0" y1="0" x2="0" y2="20" stroke="#9aa5b1" stroke-width="2"/>
      
      <!-- Risk icons -->
      <g transform="translate(0, 80)">
        <!-- Money waste icon -->
        <circle cx="-40" cy="0" r="30" fill="#ff6b6b" opacity="0.9"/>
        <text x="-40" y="5" font-family="Arial, sans-serif" font-size="24" text-anchor="middle" fill="white">$</text>
        
        <!-- Warning icon -->
        <circle cx="40" cy="0" r="30" fill="#ffa94d" opacity="0.9"/>
        <text x="40" y="8" font-family="Arial, sans-serif" font-size="30" text-anchor="middle" font-weight="bold" fill="white">!</text>
      </g>
      
      <!-- Label -->
      <text x="0" y="150" font-family="Arial, sans-serif" font-size="18" text-anchor="middle" fill="#333">AI Limitations</text>
      <text x="0" y="175" font-family="Arial, sans-serif" font-size="16" text-anchor="middle" fill="#555">Risks</text>
    </g>
    
    <!-- Right side - Opportunities -->
    <g transform="translate(200, 0)">
      <circle cx="0" cy="0" r="10" fill="#6c757d"/>
      <!-- Scale platform -->
      <rect x="-75" y="20" width="150" height="10" rx="3" ry="3" fill="#9aa5b1"/>
      <!-- Scale strings -->
      <line x1="-60" y1="0" x2="-60" y2="20" stroke="#9aa5b1" stroke-width="2"/>
      <line x1="60" y1="0" x2="60" y2="20" stroke="#9aa5b1" stroke-width="2"/>
      <line x1="0" y1="0" x2="0" y2="20" stroke="#9aa5b1" stroke-width="2"/>
      
      <!-- Opportunity icons -->
      <g transform="translate(0, 80)">
        <!-- Growth icon -->
        <circle cx="-40" cy="0" r="30" fill="#4dabf7" opacity="0.9"/>
        <polyline points="-52,-10 -40,-20 -28,-10 -28,10 -40,20 -52,10 -52,-10" fill="none" stroke="white" stroke-width="3"/>
        
        <!-- Success icon -->
        <circle cx="40" cy="0" r="30" fill="#51cf66" opacity="0.9"/>
        <polyline points="25,5 35,15 55,-15" fill="none" stroke="white" stroke-width="5" stroke-linecap="round" stroke-linejoin="round"/>
      </g>
      
      <!-- Label -->
      <text x="0" y="150" font-family="Arial, sans-serif" font-size="18" text-anchor="middle" fill="#333">AI Understanding</text>
      <text x="0" y="175" font-family="Arial, sans-serif" font-size="16" text-anchor="middle" fill="#555">Opportunities</text>
    </g>
  </g>
  
  <!-- Bottom section - Business outcomes -->
  <g transform="translate(400, 520)">
    <rect x="-350" y="-40" width="700" height="80" rx="10" ry="10" fill="#e9ecef"/>
    <text x="0" y="5" font-family="Arial, sans-serif" font-size="20" text-anchor="middle" fill="#333">Business Outcomes</text>
    
    <!-- Arrow going left - Negative -->
    <line x1="-200" y1="25" x2="-280" y2="25" stroke="#dc3545" stroke-width="3" stroke-linecap="round"/>
    <polygon points="-280,25 -270,20 -270,30" fill="#dc3545"/>
    <text x="-240" y="20" font-family="Arial, sans-serif" font-size="14" text-anchor="middle" fill="#dc3545">Wasted Investment</text>
    
    <!-- Arrow going right - Positive -->
    <line x1="200" y1="25" x2="280" y2="25" stroke="#28a745" stroke-width="3" stroke-linecap="round"/>
    <polygon points="280,25 270,20 270,30" fill="#28a745"/>
    <text x="240" y="20" font-family="Arial, sans-serif" font-size="14" text-anchor="middle" fill="#28a745">Strategic Value</text>
  </g>
  
  <!-- CPU/Brain icons on both sides -->
  <g transform="translate(400, 150)">
    <!-- Left side - AI -->
    <g transform="translate(-250, 0)">
      <rect x="-50" y="-50" width="100" height="100" rx="10" ry="10" fill="#e9ecef" stroke="#adb5bd" stroke-width="2"/>
      
      <!-- CPU circuits -->
      <line x1="-40" y1="-40" x2="40" y2="-40" stroke="#adb5bd" stroke-width="2"/>
      <line x1="-40" y1="-20" x2="40" y2="-20" stroke="#adb5bd" stroke-width="2"/>
      <line x1="-40" y1="0" x2="40" y2="0" stroke="#adb5bd" stroke-width="2"/>
      <line x1="-40" y1="20" x2="40" y2="20" stroke="#adb5bd" stroke-width="2"/>
      <line x1="-40" y1="40" x2="40" y2="40" stroke="#adb5bd" stroke-width="2"/>
      
      <line x1="-40" y1="-40" x2="-40" y2="40" stroke="#adb5bd" stroke-width="2"/>
      <line x1="-20" y1="-40" x2="-20" y2="40" stroke="#adb5bd" stroke-width="2"/>
      <line x1="0" y1="-40" x2="0" y2="40" stroke="#adb5bd" stroke-width="2"/>
      <line x1="20" y1="-40" x2="20" y2="40" stroke="#adb5bd" stroke-width="2"/>
      <line x1="40" y1="-40" x2="40" y2="40" stroke="#adb5bd" stroke-width="2"/>
      
      <text x="0" y="80" font-family="Arial, sans-serif" font-size="18" text-anchor="middle" fill="#333">AI Systems</text>
    </g>
    
    <!-- Right side - Business -->
    <g transform="translate(250, 0)">
      <ellipse cx="0" cy="0" rx="50" ry="60" fill="#e9ecef" stroke="#adb5bd" stroke-width="2"/>
      
      <!-- Brain circuits -->
      <path d="M-20,-30 C-5,-40 5,-40 20,-30 C30,-15 30,15 20,30 C5,40 -5,40 -20,30 C-30,15 -30,-15 -20,-30 Z" fill="none" stroke="#adb5bd" stroke-width="2"/>
      <path d="M0,-35 C0,-20 0,-10 10,0 C0,10 0,20 0,35" fill="none" stroke="#adb5bd" stroke-width="2"/>
      <path d="M-25,0 L25,0" stroke="#adb5bd" stroke-width="2"/>
      
      <text x="0" y="80" font-family="Arial, sans-serif" font-size="18" text-anchor="middle" fill="#333">Business Strategy</text>
    </g>
    
    <!-- Connection between AI and Business - changed from thick black to light gray dashed -->
    <line x1="-130" y1="0" x2="130" y2="0" stroke="#adb5bd" stroke-width="2" stroke-dasharray="10,5"/>
    <polygon points="130,0 120,-5 120,5" fill="#adb5bd"/>
    <polygon points="-130,0 -120,-5 -120,5" fill="#adb5bd"/>
    
    <text x="0" y="-15" font-family="Arial, sans-serif" font-size="16" text-anchor="middle" fill="#555">Understanding Limitations</text>
  </g>
  
  <!-- NEW ELEMENT: Public LLMs Control Problem -->
  <g transform="translate(175, 225)">
    <!-- Background -->
    <rect x="-75" y="-30" width="150" height="60" rx="8" ry="8" fill="#fee" stroke="#dc3545" stroke-width="1.5" stroke-dasharray="4,2"/>
    
    <!-- "No Control" symbol -->
    <circle cx="-50" cy="0" r="20" fill="#dc3545" opacity="0.2"/>
    <line x1="-65" y1="-15" x2="-35" y2="15" stroke="#dc3545" stroke-width="3"/>
    <line x1="-65" y1="15" x2="-35" y2="-15" stroke="#dc3545" stroke-width="3"/>
    
    <!-- Text -->
    <text x="10" y="0" font-family="Arial, sans-serif" font-size="14" text-anchor="middle" fill="#dc3545" font-weight="bold">Public LLMs</text>
    <text x="10" y="20" font-family="Arial, sans-serif" font-size="12" text-anchor="middle" fill="#dc3545">Not Controllable</text>
  </g>
  
  <!-- NEW ELEMENT: Solution arrow to Local deployment -->
  <g transform="translate(475, 225)">
    <!-- Background -->
    <rect x="-75" y="-30" width="150" height="60" rx="8" ry="8" fill="#e6fff2" stroke="#28a745" stroke-width="1.5" stroke-dasharray="4,2"/>
    
    <!-- "Control" symbol -->
    <circle cx="-50" cy="0" r="20" fill="#28a745" opacity="0.2"/>
    <polyline points="-60,-5 -50,10 -40,-10" fill="none" stroke="#28a745" stroke-width="3" stroke-linecap="round" stroke-linejoin="round"/>
    
    <!-- Text -->
    <text x="10" y="0" font-family="Arial, sans-serif" font-size="14" text-anchor="middle" fill="#28a745" font-weight="bold">Local Models</text>
    <text x="10" y="20" font-family="Arial, sans-serif" font-size="12" text-anchor="middle" fill="#28a745">Full Control</text>
  </g>
  
  <!-- Arrow connecting the two new elements -->
  <line x1="255" y1="225" x2="390" y2="225" stroke="#6c757d" stroke-width="2" stroke-dasharray="3,2"/>
  <polygon points="390,225 380,220 380,230" fill="#6c757d"/>
</svg>
