<svg xmlns="http://www.w3.org/2000/svg" viewBox="0 0 800 260" width="800" height="260">   <!-- Background -->   <rect width="800" height="260" fill="#f8f9fa" rx="10" ry="10" />      <!-- Document Icons -->   <rect x="50" y="80" width="120" height="140" fill="#ffffff" stroke="#3366cc" stroke-width="2" rx="5" ry="5" />   <line x1="70" y1="110" x2="150" y2="110" stroke="#3366cc" stroke-width="2" />   <line x1="70" y1="130" x2="150" y2="130" stroke="#3366cc" stroke-width="2" />   <line x1="70" y1="150" x2="150" y2="150" stroke="#3366cc" stroke-width="2" />   <line x1="70" y1="170" x2="120" y2="170" stroke="#3366cc" stroke-width="2" />      <!-- HTML Document -->   <rect x="250" y="80" width="120" height="140" fill="#ffffff" stroke="#cc3366" stroke-width="2" rx="5" ry="5" />   <text x="270" y="110" font-family="monospace" font-size="10" fill="#cc3366">&lt;html&gt;</text>   <text x="270" y="130" font-family="monospace" font-size="10" fill="#cc3366">  &lt;head&gt;</text>   <text x="270" y="150" font-family="monospace" font-size="10" fill="#cc3366">  &lt;body&gt;</text>   <text x="270" y="170" font-family="monospace" font-size="10" fill="#cc3366">&lt;/html&gt;</text>      <!-- Browser Rendering -->   <rect x="450" y="80" width="120" height="140" fill="#ffffff" stroke="#339933" stroke-width="2" rx="5" ry="5" />   <rect x="470" y="110" width="80" height="20" fill="#e6f2ff" stroke="#3366cc" stroke-width="1" rx="3" ry="3" />   <rect x="470" y="140" width="80" height="40" fill="#ffebf3" stroke="#cc3366" stroke-width="1" rx="3" ry="3" />      <!-- Enhanced DOM -->   <rect x="650" y="80" width="120" height="140" fill="#ffffff" stroke="#ff9900" stroke-width="2" rx="5" ry="5" />   <rect x="670" y="100" width="80" height="15" fill="#e6f2ff" stroke="#3366cc" stroke-width="1" rx="3" ry="3" />   <rect x="670" y="125" width="80" height="30" fill="#ffebf3" stroke="#cc3366" stroke-width="1" rx="3" ry="3" />   <rect x="670" y="165" width="80" height="25" fill="#e6ffe6" stroke="#339933" stroke-width="1" rx="3" ry="3" />      <!-- Process Arrows -->   <polygon points="180,150 200,150 200,140 220,150 200,160 200,150" fill="#666666" />   <polygon points="380,150 400,150 400,140 420,150 400,160 400,150" fill="#666666" />   <polygon points="580,150 600,150 600,140 620,150 600,160 600,150" fill="#666666" />      <!-- Labels -->   <text x="110" y="50" font-family="Arial" font-size="16" fill="#3366cc" text-anchor="middle" font-weight="bold">Google Doc</text>   <text x="310" y="50" font-family="Arial" font-size="16" fill="#cc3366" text-anchor="middle" font-weight="bold">Basic HTML</text>   <text x="510" y="50" font-family="Arial" font-size="16" fill="#339933" text-anchor="middle" font-weight="bold">Browser Render</text>   <text x="710" y="50" font-family="Arial" font-size="16" fill="#ff9900" text-anchor="middle" font-weight="bold">Enhanced DOM</text>      <!-- Process Labels -->   <text x="200" y="190" font-family="Arial" font-size="12" fill="#666666" text-anchor="middle">Server-side</text>   <text x="200" y="205" font-family="Arial" font-size="12" fill="#666666" text-anchor="middle">Conversion</text>      <text x="400" y="190" font-family="Arial" font-size="12" fill="#666666" text-anchor="middle">Browser</text>   <text x="400" y="205" font-family="Arial" font-size="12" fill="#666666" text-anchor="middle">Loading</text>      <text x="600" y="190" font-family="Arial" font-size="12" fill="#666666" text-anchor="middle">JavaScript</text>   <text x="600" y="205" font-family="Arial" font-size="12" fill="#666666" text-anchor="middle">Enhancement</text>      <!-- Main Title -->   <text x="400" y="25" font-family="Arial" font-size="20" fill="#333333" text-anchor="middle" font-weight="bold">Edge Delivery Services Document Transformation Process</text> </svg>