<svg viewBox="0 0 800 600" xmlns="http://www.w3.org/2000/svg">
    <!-- Title -->
    <text x="400" y="30" text-anchor="middle" font-size="24" font-weight="bold" fill="#333">
      Edge Delivery Services: Headless Architecture
    </text>
    
    <!-- Content Creation Layer -->
    <g id="content-layer">
      <rect x="50" y="70" width="700" height="80" fill="#e3f2fd" stroke="#1976d2" stroke-width="2" rx="8"/>
      <text x="400" y="100" text-anchor="middle" font-size="16" font-weight="bold" fill="#1976d2">
        Content Creation (Google Drive)
      </text>
      
      <!-- Individual pages -->
      <rect x="100" y="110" width="120" height="30" fill="#ffffff" stroke="#1976d2" rx="4"/>
      <text x="160" y="130" text-anchor="middle" font-size="12" fill="#333">Page 1</text>
      
      <rect x="250" y="110" width="120" height="30" fill="#ffffff" stroke="#1976d2" rx="4"/>
      <text x="310" y="130" text-anchor="middle" font-size="12" fill="#333">Page 2</text>
      
      <rect x="400" y="110" width="120" height="30" fill="#ffffff" stroke="#1976d2" rx="4"/>
      <text x="460" y="130" text-anchor="middle" font-size="12" fill="#333">Page 3</text>
      
      <rect x="550" y="110" width="120" height="30" fill="#ffffff" stroke="#1976d2" rx="4"/>
      <text x="610" y="130" text-anchor="middle" font-size="12" fill="#333">query-index</text>
    </g>
    
    <!-- Arrow down -->
    <path d="M 400 150 L 400 180" stroke="#666" stroke-width="2" fill="none" marker-end="url(#arrowhead)"/>
    
    <!-- Edge Delivery Services Layer -->
    <g id="eds-layer">
      <rect x="50" y="190" width="700" height="100" fill="#f3e5f5" stroke="#7b1fa2" stroke-width="2" rx="8"/>
      <text x="400" y="215" text-anchor="middle" font-size="16" font-weight="bold" fill="#7b1fa2">
        Edge Delivery Services Processing
      </text>
      
      <!-- JSON generation -->
      <rect x="150" y="230" width="200" height="40" fill="#ffffff" stroke="#7b1fa2" rx="4"/>
      <text x="250" y="255" text-anchor="middle" font-size="12" fill="#333">JSON Generation</text>
      
      <!-- Plain HTML -->
      <rect x="450" y="230" width="200" height="40" fill="#ffffff" stroke="#7b1fa2" rx="4"/>
      <text x="550" y="255" text-anchor="middle" font-size="12" fill="#333">.plain.html Fragments</text>
    </g>
    
    <!-- Split arrows -->
    <path d="M 300 290 L 300 320 L 200 320 L 200 350" stroke="#666" stroke-width="2" fill="none" marker-end="url(#arrowhead)"/>
    <path d="M 500 290 L 500 320 L 600 320 L 600 350" stroke="#666" stroke-width="2" fill="none" marker-end="url(#arrowhead)"/>
    
    <!-- Output Layer -->
    <g id="output-layer">
      <!-- Static Pages -->
      <rect x="50" y="360" width="300" height="120" fill="#e8f5e9" stroke="#388e3c" stroke-width="2" rx="8"/>
      <text x="200" y="385" text-anchor="middle" font-size="16" font-weight="bold" fill="#388e3c">
        Static Pages (100/100/100/100)
      </text>
      <text x="200" y="410" text-anchor="middle" font-size="12" fill="#333">Home / Landing / Campaign</text>
      <rect x="100" y="425" width="200" height="40" fill="#ffffff" stroke="#388e3c" rx="4"/>
      <text x="200" y="450" text-anchor="middle" font-size="11" fill="#333">Pure Edge Delivery</text>
      
      <!-- SPA Pages -->
      <rect x="450" y="360" width="300" height="120" fill="#fff3e0" stroke="#f57c00" stroke-width="2" rx="8"/>
      <text x="600" y="385" text-anchor="middle" font-size="16" font-weight="bold" fill="#f57c00">
        SPA Application
      </text>
      <text x="600" y="410" text-anchor="middle" font-size="12" fill="#333">Interactive Slideshow</text>
      
      <!-- SPA Features -->
      <rect x="470" y="425" width="120" height="20" fill="#ffffff" stroke="#f57c00" rx="4"/>
      <text x="530" y="438" text-anchor="middle" font-size="9" fill="#333">Lazy Loading</text>
      
      <rect x="610" y="425" width="120" height="20" fill="#ffffff" stroke="#f57c00" rx="4"/>
      <text x="670" y="438" text-anchor="middle" font-size="9" fill="#333">Progressive Enhancement</text>
      
      <rect x="540" y="450" width="120" height="20" fill="#ffffff" stroke="#f57c00" rx="4"/>
      <text x="600" y="463" text-anchor="middle" font-size="9" fill="#333">Interactive Overlays</text>
    </g>
    
    <!-- Performance indicators -->
    <g id="performance">
      <circle cx="100" cy="520" r="30" fill="#4caf50" opacity="0.8"/>
      <text x="100" y="525" text-anchor="middle" font-size="12" fill="#fff" font-weight="bold">Fast</text>
      
      <circle cx="200" cy="520" r="30" fill="#2196f3" opacity="0.8"/>
      <text x="200" y="525" text-anchor="middle" font-size="12" fill="#fff" font-weight="bold">Cached</text>
      
      <circle cx="550" cy="520" r="30" fill="#ff9800" opacity="0.8"/>
      <text x="550" y="525" text-anchor="middle" font-size="12" fill="#fff" font-weight="bold">Dynamic</text>
      
      <circle cx="650" cy="520" r="30" fill="#9c27b0" opacity="0.8"/>
      <text x="650" y="525" text-anchor="middle" font-size="12" fill="#fff" font-weight="bold">Interactive</text>
    </g>
    
    <!-- Arrow marker definition -->
    <defs>
      <marker id="arrowhead" markerWidth="10" markerHeight="7" 
              refX="9" refY="3.5" orient="auto">
        <polygon points="0 0, 10 3.5, 0 7" fill="#666"/>
      </marker>
    </defs>
    
    <!-- Key insight callout -->
    <g id="callout">
      <rect x="250" y="550" width="300" height="40" fill="#fffde7" stroke="#f9a825" stroke-width="2" rx="20"/>
      <text x="400" y="575" text-anchor="middle" font-size="14" fill="#333" font-weight="bold">
        Hybrid Approach: Best of Both Worlds
      </text>
    </g>
  </svg>
