<?xml version="1.0" encoding="UTF-8" standalone="no"?>
<svg viewBox="0 0 800 400" xmlns="http://www.w3.org/2000/svg">
    <!-- Background -->
    <rect width="800" height="400" fill="#f8f9fa" />

    <!-- Title - Moved even higher to avoid any overlap -->
    <text x="400" y="30" font-family="Arial, sans-serif" font-size="32" fill="#2c3e50"
        font-weight="bold" text-anchor="middle">What's Missing from AI</text>

    <!-- Subtitle - Moved even higher to avoid any overlap -->
    <text x="400" y="60" font-family="Arial, sans-serif" font-size="18" fill="#7f8c8d"
        text-anchor="middle">Critical Gaps in Enterprise AI Systems</text>

    <!-- Binary/Code elements -->
    <text x="160" y="140" font-family="Consolas, monospace" font-size="12" fill="#7f8c8d">
        010011101010</text>
    <text x="140" y="160" font-family="Consolas, monospace" font-size="12" fill="#7f8c8d">
        10111000101010</text>
    <text x="120" y="180" font-family="Consolas, monospace" font-size="12" fill="#7f8c8d">
        0101010111010101</text>
    <text x="100" y="200" font-family="Consolas, monospace" font-size="12" fill="#7f8c8d">
        11101010010101010</text>
    <text x="120" y="220" font-family="Consolas, monospace" font-size="12" fill="#7f8c8d">
        0101011101010101</text>
    <text x="140" y="240" font-family="Consolas, monospace" font-size="12" fill="#7f8c8d">
        10101001010101</text>
    <text x="160" y="260" font-family="Consolas, monospace" font-size="12" fill="#7f8c8d">
        101011010101</text>

    <!-- Brain outline - adjusted to ensure all elements are contained -->
    <path
        d="M510,170 C550,140 560,85 520,75 C480,65 450,95 445,115 C440,85 410,70 385,80 C350,95 345,135 365,155 C340,150 320,165 315,185 C310,210 330,230 345,235 C330,245 325,270 335,290 C345,310 370,315 380,305 C375,325 395,355 425,355 C450,355 475,330 475,310 C510,325 535,310 545,285 C555,260 535,240 520,235 C540,220 550,185 535,160 C525,145 515,150 510,170"
        fill="none" stroke="#2c3e50" stroke-width="3" />

    <!-- Missing puzzle pieces effect -->
    <path d="M425,200 L425,155 L480,155 L480,200 Z" fill="#3498db" opacity="0.2" />
    <path d="M425,200 L425,155 L480,155 L480,200 Z" fill="none" stroke="#2c3e50" stroke-width="2"
        stroke-dasharray="5,5" />

    <path d="M340,245 L340,195 L390,195 L390,245 Z" fill="#3498db" opacity="0.2" />
    <path d="M340,245 L340,195 L390,195 L390,245 Z" fill="none" stroke="#2c3e50" stroke-width="2"
        stroke-dasharray="5,5" />

    <path d="M380,305 L380,255 L425,255 L425,305 Z" fill="#3498db" opacity="0.2" />
    <path d="M380,305 L380,255 L425,255 L425,305 Z" fill="none" stroke="#2c3e50" stroke-width="2"
        stroke-dasharray="5,5" />

    <!-- Solid puzzle pieces -->
    <path
        d="M455,230 C455,225 460,225 465,230 L480,230 L480,275 L465,275 C460,280 455,280 455,275 L455,260 C450,255 450,250 455,245 Z"
        fill="#3498db" />
    <path
        d="M455,230 C455,225 460,225 465,230 L480,230 L480,275 L465,275 C460,280 455,280 455,275 L455,260 C450,255 450,250 455,245 Z"
        fill="none" stroke="#2c3e50" stroke-width="2" />

    <path
        d="M370,195 C370,190 375,190 380,195 L395,195 L395,240 L380,240 C375,245 370,245 370,240 L370,225 C365,220 365,215 370,210 Z"
        fill="#e74c3c" />
    <path
        d="M370,195 C370,190 375,190 380,195 L395,195 L395,240 L380,240 C375,245 370,245 370,240 L370,225 C365,220 365,215 370,210 Z"
        fill="none" stroke="#2c3e50" stroke-width="2" />

    <!-- Connection Lines -->
    <line x1="220" y1="180" x2="315" y2="185" stroke="#7f8c8d" stroke-width="1.5"
        stroke-dasharray="3,3" />
    <line x1="235" y1="230" x2="335" y2="290" stroke="#7f8c8d" stroke-width="1.5"
        stroke-dasharray="3,3" />

    <!-- Question Marks in Missing Areas -->
    <text x="445" y="185" font-family="Arial, sans-serif" font-size="24" fill="#2c3e50"
        font-weight="bold">?</text>
    <text x="360" y="230" font-family="Arial, sans-serif" font-size="24" fill="#2c3e50"
        font-weight="bold">?</text>
    <text x="400" y="290" font-family="Arial, sans-serif" font-size="24" fill="#2c3e50"
        font-weight="bold">?</text>

    <!-- Memory Symbol - repositioned to be inside the brain -->
    <rect x="485" y="295" width="40" height="30" rx="5" ry="5" fill="#9b59b6" fill-opacity="0.3"
        stroke="#2c3e50" stroke-width="1.5" />
    <line x1="495" y1="305" x2="515" y2="305" stroke="#2c3e50" stroke-width="1" />
    <line x1="495" y1="315" x2="510" y2="315" stroke="#2c3e50" stroke-width="1" />

    <!-- Document/Knowledge Symbol -->
    <rect x="500" y="175" width="30" height="40" fill="#f1c40f" fill-opacity="0.3" stroke="#2c3e50"
        stroke-width="1.5" />
    <line x1="505" y1="185" x2="525" y2="185" stroke="#2c3e50" stroke-width="1" />
    <line x1="505" y1="195" x2="525" y2="195" stroke="#2c3e50" stroke-width="1" />
    <line x1="505" y1="205" x2="520" y2="205" stroke="#2c3e50" stroke-width="1" />

    <!-- Clear separation line to ensure visual separation -->
    <line x1="50" y1="90" x2="750" y2="90" stroke="#e0e0e0" stroke-width="1" />
</svg>